# xmcd CD database file
#
# Track frame offsets:
#	150
#	14190
#	26235
#	38642
#	52917
#	67115
#	79757
#	92154
#	104702
#	118850
#	132960
#	145770
#	157272
#	171665
#	182770
#	192420
#	203465
#	215375
#	227677
#	238960
#	252075
#	261762
#	273620
#	287412
#	297830
#	308765
#	322210
#	333282
#
# Disc length: 4576 seconds
#
# Revision: 0
# Processed by: cddbd v1.5.1PL0 Copyright (c) Steve Scherf et al.
# Submitted via: CDex 1.51
#
DISCID=b611de1c
DTITLE=Kay Starr - Wheel of Fortune
DYEAR=2003
DGENRE=Jazz
TTITLE0=Wheel of Fortune 
TTITLE1=You Always Hurt the One You Love 
TTITLE2=If I Could Be With You One Hour Tonight 
TTITLE3=Stormy Weather 
TTITLE4=Honey 
TTITLE5=After You've Gone 
TTITLE6=I'm the Lonesomest Gal in Town 
TTITLE7=You've Gotta See Mama Ev'ry Night, Or You Can't See Mama at All 
TTITLE8=Please Love Me 
TTITLE9=You Were Only Foolin' 
TTITLE10=So Tired 
TTITLE11=Wabash Cannonball 
TTITLE12=How It Lies, How It Lies, How It Lies 
TTITLE13=Bonaparte's Retreat 
TTITLE14=Hoop-Dee-Doo 
TTITLE15=Mississippi 
TTITLE16=I'll Never Be Free 
TTITLE17=Ain't Nobody's Business But My Own 
TTITLE18=Oh, Babe! 
TTITLE19=Lovesick Blues 
TTITLE20=Angry 
TTITLE21=Come On-A My House 
TTITLE22=I Waited a Little Too Long 
TTITLE23=Fool, Fool, Fool 
TTITLE24=Kay's Lament 
TTITLE25=Side by Side 
TTITLE26=Comes A-Long A-Love 
TTITLE27=Waiting at the End of the Road 
EXTD=YEAR: 2003
EXTT0=
EXTT1=
EXTT2=
EXTT3=
EXTT4=
EXTT5=
EXTT6=
EXTT7=
EXTT8=
EXTT9=
EXTT10=
EXTT11=
EXTT12=
EXTT13=
EXTT14=
EXTT15=
EXTT16=
EXTT17=
EXTT18=
EXTT19=
EXTT20=
EXTT21=
EXTT22=
EXTT23=
EXTT24=
EXTT25=
EXTT26=
EXTT27=
PLAYORDER=
